# xmcd
#
# Track frame offsets: 
#        150
#        17309
#        34650
#        53822
#        75144
#        94877
#        110809
#        127041
#        144662
#        161361
#        174687
#
# Disc length: 2499 seconds
#
# Revision: 0
# Processed by: cddbd v1.5.2PL0 Copyright (c) Steve Scherf et al.
# Submitted via: ExactAudioCopyFreeDBPlugin 1.0
#
DISCID=8509c10b
DTITLE=Neil Dover - Looking For You
DYEAR=2014
DGENRE=Country
TTITLE0=Looking For You
TTITLE1=Drink Her Pretty
TTITLE2=FloraBama Time
TTITLE3=Sit Here In It
TTITLE4=The Hat
TTITLE5=Good Jeans
TTITLE6=The Finger Lickin' Guitar Pickin'-Man
TTITLE7=What I'm Trying To Say
TTITLE8=Pick a Fight
TTITLE9=Tonky Honked
TTITLE10=Ther Old Rugged Cross
EXTD=
EXTT0=
EXTT1=
EXTT2=
EXTT3=
EXTT4=
EXTT5=
EXTT6=
EXTT7=
EXTT8=
EXTT9=
EXTT10=
PLAYORDER=
